PathFileType	4	(X/Y/Z)	 s09c0203.trc
DataRate	CameraRate	NumFrames	NumMarkers	Units	OrigDataRate	OrigDataStartFrame	OrigNumFrames
200	200	5	50	mm	200	501	2000
Frame#	Time	racr			lacr			c7			jug			rlel			rdr			llel			ldr			s2			lic			ric			lasi			rasi			rpsi			lpsi			rgt			lgt			rth1			rth2			rth3			rth4			rlfc			rmfc			rsh1			rsh2			rsh3			rsh4			rlmal			rmmal			rcal			rtoe			rmt5			lth1			lth2			lth4			lth3			llfc			lmfc			llmal			lmmal			lcal			lmt5			lsh1			lsh2			lsh3			lsh4			ltoe			SBIKE			LBIKE			RBIKE			
		X1	Y1	Z1	X2	Y2	Z2	X3	Y3	Z3	X4	Y4	Z4	X5	Y5	Z5	X6	Y6	Z6	X7	Y7	Z7	X8	Y8	Z8	X9	Y9	Z9	X10	Y10	Z10	X11	Y11	Z11	X12	Y12	Z12	X13	Y13	Z13	X14	Y14	Z14	X15	Y15	Z15	X16	Y16	Z16	X17	Y17	Z17	X18	Y18	Z18	X19	Y19	Z19	X20	Y20	Z20	X21	Y21	Z21	X22	Y22	Z22	X23	Y23	Z23	X24	Y24	Z24	X25	Y25	Z25	X26	Y26	Z26	X27	Y27	Z27	X28	Y28	Z28	X29	Y29	Z29	X30	Y30	Z30	X31	Y31	Z31	X32	Y32	Z32	X33	Y33	Z33	X34	Y34	Z34	X35	Y35	Z35	X36	Y36	Z36	X37	Y37	Z37	X38	Y38	Z38	X39	Y39	Z39	X40	Y40	Z40	X41	Y41	Z41	X42	Y42	Z42	X43	Y43	Z43	X44	Y44	Z44	X45	Y45	Z45	X46	Y46	Z46	X47	Y47	Z47	X48	Y48	Z48	X49	Y49	Z49	X50	Y50	Z50	
501	2.5050	510.048360	1234.710121	-36.250004	541.143934	1244.363587	-376.013172	503.219852	1308.087898	-193.852338	478.393907	1175.575557	-215.079337	453.790583	990.705299	37.681682	673.396962	910.274431	-34.663950	449.644974	1014.775375	-519.356064	666.248679	907.949321	-447.438705	8.614111	1137.652743	-213.977746	136.267738	1152.220583	-371.442056	159.627224	1123.668324	-71.061637	173.494096	1090.562722	-352.897536	204.550425	1075.990450	-101.170762	43.174764	1159.851555	-153.856438	35.756178	1179.922499	-259.765158	141.353756	979.608230	-45.492312	113.959072	1034.284346	-418.351110	231.046403	873.589373	-61.862782	298.072575	819.542423	-77.620535	324.378994	735.656350	-92.188841	321.631688	837.906310	-99.605710	367.758277	650.986545	-124.949206	336.944868	624.219683	-215.245325	346.842315	553.045557	-81.376806	361.600405	465.120021	-94.649334	334.571124	382.561659	-85.047782	381.065298	465.628766	-129.620822	319.516403	280.403453	-76.492442	313.729950	288.607110	-153.295172	243.662031	246.564467	-104.854459	506.067592	220.348595	-134.087511	428.252885	208.802605	-61.936471	231.754260	956.804086	-422.158288	313.071555	932.923601	-415.784444	331.933828	961.031827	-397.624587	375.156754	866.848335	-416.518137	430.078048	783.549903	-404.303510	439.383865	764.224323	-305.360667	141.295953	565.823908	-403.512891	160.331579	560.681610	-329.752433	64.501101	570.268154	-360.598778	175.260023	435.941075	-427.682565	356.361840	718.957640	-423.480119	301.506761	652.689244	-410.068615	217.953379	621.841814	-408.077912	318.171384	635.789652	-379.500616	259.683382	397.506147	-363.148606	-64.197718	851.614223	-238.034887	21.059835	85.360196	-441.984352	21.236279	84.171255	-43.599925	
502	2.5100	511.090869	1236.023343	-38.809526	538.406845	1246.815747	-379.544069	502.631062	1310.336827	-197.030861	477.908655	1177.717980	-217.784709	455.043967	992.560555	37.461009	673.982106	910.397512	-34.513992	449.037741	1014.316793	-519.616572	665.794506	907.741870	-446.523032	8.132081	1137.668157	-213.296826	135.155095	1152.707103	-371.220745	159.775535	1123.832864	-71.033993	172.621570	1091.214592	-352.824460	204.561895	1076.079856	-101.443802	42.872729	1159.683145	-153.555946	34.734794	1179.688271	-259.414960	141.489378	979.504075	-45.432110	113.655185	1035.262790	-418.313091	229.849403	872.289374	-61.805581	296.137318	817.401312	-77.679085	321.350512	733.187478	-92.173500	319.858032	835.461654	-99.780681	363.905574	648.340364	-124.726159	332.151752	621.728691	-214.574234	343.126533	550.536565	-81.096607	358.299697	462.766976	-94.484123	331.717357	380.038440	-84.834835	377.655345	463.273040	-129.517440	316.843416	277.826856	-76.549372	311.323607	285.827945	-153.157977	240.984276	245.389444	-104.809065	502.867124	214.389501	-134.160506	424.913413	204.328919	-61.923758	232.274480	959.073052	-422.059358	313.936085	936.257652	-415.322463	332.263410	964.489997	-396.894725	376.906907	871.080450	-416.643392	432.456002	788.368531	-403.733702	441.715036	768.768895	-304.719735	143.970550	569.862342	-403.550701	163.257829	564.648331	-329.965373	66.864591	573.794969	-360.763596	179.107543	440.462094	-427.734013	358.711911	723.832668	-423.025098	303.931125	657.482504	-409.849766	220.443654	626.511813	-407.910938	320.653999	640.433721	-379.482010	263.744603	402.745862	-362.896003	-64.233421	851.598775	-238.077708	21.034127	85.344570	-442.001266	21.227379	84.160757	-43.616261	
503	2.5150	512.014589	1237.479509	-41.535708	535.684710	1249.029502	-382.823281	502.141635	1312.663826	-200.357061	477.349522	1179.960294	-220.560254	456.286791	994.568724	37.252168	674.497772	910.531304	-34.443621	448.483515	1013.893668	-519.901213	665.332506	907.532665	-445.729962	9.051822	1138.256424	-212.984315	134.021138	1153.094502	-371.067850	159.924495	1123.888026	-71.173542	171.721147	1091.613892	-352.606033	204.592729	1076.182752	-101.862986	42.522792	1159.560970	-153.243570	33.758092	1179.691492	-259.185107	141.550107	979.358681	-45.347617	113.249769	1036.092461	-418.235836	228.532632	871.178812	-61.781796	294.187396	815.512400	-77.655274	318.408528	731.031899	-92.112065	317.987905	833.119917	-99.930786	359.910865	645.986109	-124.503361	327.870358	619.185916	-214.318560	339.517376	548.266574	-80.747066	355.057394	460.563771	-94.276861	328.926469	377.560271	-84.585199	374.300092	461.188916	-129.305457	314.197818	275.515462	-76.645079	308.945810	283.562392	-153.042247	238.182673	244.351907	-104.768677	499.479444	208.440340	-134.216234	421.339040	199.916670	-61.963537	232.643608	961.452036	-421.787422	314.659082	939.569923	-414.934913	332.459791	968.022193	-396.041187	378.502010	875.189156	-416.136240	434.715398	793.178788	-403.059211	443.914007	773.207883	-304.068602	146.797555	573.713413	-403.634337	165.934590	568.741861	-330.002695	69.403702	577.037845	-360.971826	183.173418	444.890418	-427.789828	360.899872	728.668670	-422.539811	306.303521	662.183325	-409.618062	222.860961	631.015030	-407.761713	323.154106	644.921280	-379.385699	268.563705	408.131974	-362.714298	-64.271899	851.585989	-238.120538	21.035984	85.330204	-442.007838	21.213691	84.173256	-43.637561	
504	2.5200	512.897112	1239.085861	-44.370839	532.901680	1251.258459	-386.250274	501.335340	1314.863180	-203.688225	476.710718	1182.036196	-223.364475	457.605641	996.688417	36.969777	674.968999	910.681669	-34.438879	447.922570	1013.563100	-520.204135	664.913342	907.368941	-445.053596	8.279457	1137.986515	-212.443848	132.730583	1153.257427	-370.904787	160.067997	1123.969132	-71.427530	170.745937	1091.901707	-352.604589	204.606986	1076.342533	-102.338634	42.165195	1159.409755	-152.981461	32.899467	1179.588049	-258.913629	141.572499	979.159470	-45.263955	112.690299	1036.875161	-418.124593	227.242585	870.021029	-61.694345	292.131327	813.560213	-77.677223	315.623138	728.926552	-91.965617	316.282749	831.037338	-100.083690	356.300702	643.658149	-124.321698	323.714473	616.943925	-214.024189	335.979921	546.068795	-80.583709	351.894187	458.432130	-94.053400	326.094993	375.398201	-84.347414	371.034674	459.120127	-129.126277	311.487652	273.430879	-76.700960	306.556381	281.149058	-152.942278	235.442658	243.463136	-104.755976	495.851694	202.801033	-134.366340	417.700959	195.742566	-61.996056	233.073447	963.647745	-421.733797	315.315976	942.677496	-414.462848	332.569526	971.336957	-395.278789	379.967659	879.134765	-415.682025	436.825109	797.898037	-402.397131	446.124388	777.679152	-302.441847	149.642989	577.338439	-403.673279	168.607500	572.513961	-329.996604	72.292489	580.048017	-360.864868	187.101088	449.222418	-427.710384	362.997758	733.363181	-421.957749	308.559583	666.694996	-409.363068	225.280191	635.303112	-407.507182	325.567078	649.269366	-379.282622	273.729992	413.781621	-363.521023	-64.340232	851.619257	-238.237108	21.019985	85.346148	-442.030393	21.177229	84.166696	-43.662010	
505	2.5250	513.733104	1240.987549	-47.338622	530.232369	1253.225063	-389.665840	500.388961	1316.932701	-207.080972	476.047248	1183.950167	-226.140703	458.941537	998.988456	36.641374	675.335331	910.878598	-34.511082	447.345230	1013.237757	-520.558851	664.562439	907.261878	-444.530290	7.512456	1137.825154	-211.921128	131.670645	1153.278736	-370.886354	160.232128	1124.056080	-71.695127	169.642096	1092.068784	-352.731566	204.603498	1076.474664	-102.845848	41.782213	1159.211564	-152.750152	31.928625	1179.367600	-258.692512	141.518809	978.926455	-45.188074	112.131825	1037.584303	-418.104688	226.046478	868.970016	-61.592887	290.314821	811.725868	-77.618387	312.902406	726.902618	-91.832478	314.522290	829.019059	-100.156277	352.561922	641.687925	-124.063107	319.811213	614.740937	-213.825477	332.557787	544.022698	-80.259306	348.796895	456.485900	-93.715946	323.307417	373.297819	-84.065759	367.822317	457.217787	-128.885992	308.891683	271.348507	-76.720828	303.955169	279.070098	-152.763608	232.627279	242.810459	-104.670365	492.173214	197.067348	-134.511476	413.923037	191.691031	-62.068802	233.329804	965.659886	-421.683683	315.760501	945.759503	-414.020719	332.535690	974.789017	-394.853842	381.237877	883.004938	-415.134841	438.817493	802.633020	-401.414104	448.135279	781.989713	-301.755818	152.584054	580.728933	-403.797452	171.295576	576.179383	-329.960793	74.855936	582.881470	-361.037218	191.295386	453.380607	-427.835992	365.048469	738.016512	-421.382929	310.872838	671.149080	-409.085076	227.648024	639.438643	-407.347447	327.899548	653.539022	-379.225603	277.777201	419.228552	-363.647763	-64.473669	851.557827	-238.155041	21.004494	85.335923	-442.066910	21.154922	84.193268	-43.690780	
